<?xml version="1.0" standalone="no"?>
<!DOCTYPE svg PUBLIC "-//W3C//DTD SVG 20010904//EN"
 "http://www.w3.org/TR/2001/REC-SVG-20010904/DTD/svg10.dtd">
<svg version="1.0" xmlns="http://www.w3.org/2000/svg"
 width="18.000000pt" height="21.000000pt" viewBox="0 0 18.000000 21.000000"
 preserveAspectRatio="xMidYMid meet">
<metadata>
Created by potrace 1.16, written by Peter Selinger 2001-2019
</metadata>
<g transform="translate(0.000000,21.000000) scale(0.006792,-0.007420)"
fill="#000000" stroke="none">
<path d="M360 1440 l0 -1341 538 4 c465 3 545 6 601 20 237 64 409 191 527
391 l49 83 73 -63 c80 -71 128 -99 137 -84 3 5 36 -13 73 -41 88 -68 111 -78
123 -56 9 16 12 16 40 1 74 -38 39 29 -58 110 -40 33 -73 64 -73 68 0 5 11 6
25 2 14 -3 25 -2 25 4 0 5 -64 72 -143 149 -138 133 -143 139 -135 168 46 160
71 623 49 910 -16 223 -45 353 -110 511 -90 214 -219 346 -418 425 -186 74
-169 72 -775 77 l-548 4 0 -1342z m1135 1026 c156 -46 250 -122 322 -262 44
-86 66 -154 90 -278 29 -156 28 -835 -2 -865 -8 -7 -143 127 -170 170 -33 50
-113 131 -162 162 -82 52 -177 230 -233 435 -16 62 -39 130 -50 151 -48 95
-115 140 -208 141 -34 0 -89 12 -155 35 -65 23 -115 35 -140 33 l-39 -3 47
-35 c26 -19 73 -65 104 -102 97 -114 119 -233 82 -438 -55 -302 -55 -308 -43
-382 22 -127 74 -201 198 -284 46 -31 84 -59 84 -64 0 -4 47 -54 104 -112 84
-85 107 -115 120 -156 l17 -51 -54 -73 c-29 -40 -62 -80 -72 -88 -15 -13 -70
-15 -349 -15 l-331 0 -3 1053 -2 1053 392 -4 c337 -3 402 -6 453 -21z m113
-1676 c23 -11 79 -25 124 -31 46 -6 84 -12 86 -14 11 -11 -71 -138 -123 -191
-56 -57 -155 -124 -183 -124 -7 0 8 28 33 62 26 35 45 73 45 88 0 33 -19 190
-26 213 -7 21 -7 21 44 -3z"/>
</g>
</svg>
