<?xml version="1.0" standalone="no"?>
<!DOCTYPE svg PUBLIC "-//W3C//DTD SVG 20010904//EN"
 "http://www.w3.org/TR/2001/REC-SVG-20010904/DTD/svg10.dtd">
<svg version="1.0" xmlns="http://www.w3.org/2000/svg"
 width="115.000000pt" height="60.000000pt" viewBox="0 0 115.000000 60.000000"
 preserveAspectRatio="xMidYMid meet">
<metadata>
Created by potrace 1.16, written by Peter Selinger 2001-2019
</metadata>
<g transform="translate(0.000000,60.000000) scale(0.012778,-0.011976)"
fill="#000000" stroke="none">
<path d="M5410 4796 c0 -10 24 -43 54 -74 130 -137 158 -169 172 -196 9 -15
36 -56 61 -90 105 -142 127 -242 126 -571 0 -209 -4 -262 -27 -410 -15 -93
-36 -228 -47 -300 -71 -480 1 -752 262 -987 224 -201 556 -585 615 -713 36
-77 49 -150 34 -199 -28 -94 -196 -337 -264 -383 l-48 -33 -137 2 c-110 1
-142 -2 -169 -16 -34 -17 -35 -36 -3 -36 23 0 38 -18 43 -49 2 -16 16 -33 37
-45 46 -27 198 -28 342 -2 100 18 110 18 179 2 40 -9 91 -16 114 -16 43 0 86
22 86 44 0 18 -97 124 -120 131 -11 4 -20 14 -20 23 0 21 58 123 151 267 l72
110 -6 100 c-4 55 -14 178 -24 272 -9 95 -14 176 -10 179 4 4 24 -4 44 -18 53
-34 105 -53 198 -71 250 -50 294 -61 340 -80 115 -49 204 -126 430 -371 154
-166 221 -222 287 -236 55 -12 84 -32 228 -158 40 -35 83 -69 97 -75 23 -10
28 -8 49 18 l24 30 47 -17 c62 -22 73 -11 46 44 -22 46 -62 95 -190 227 -90
93 -102 117 -53 108 39 -8 45 5 20 52 -15 31 -171 226 -199 251 -4 3 -40 43
-81 90 -41 47 -77 87 -80 90 -3 3 -57 64 -120 135 -63 72 -117 132 -120 135
-3 3 -39 43 -80 90 -41 47 -102 114 -136 150 -34 36 -103 112 -154 170 -51 58
-96 107 -100 110 -31 22 -177 205 -196 245 -31 68 -137 198 -265 325 -59 58
-122 130 -141 160 -129 204 -213 419 -304 780 -125 498 -225 635 -477 661 -92
9 -173 33 -404 118 -45 17 -105 33 -133 37 -43 6 -50 4 -50 -10z"/>
<path d="M570 2536 l0 -686 183 0 c284 1 375 21 455 103 54 55 106 164 127
263 43 209 40 534 -7 724 -28 112 -96 198 -196 247 l-57 28 -252 3 -253 4 0
-686z m530 528 c22 -6 78 -93 107 -165 32 -80 45 -216 38 -389 -12 -254 -44
-380 -115 -444 -59 -53 -119 -68 -283 -69 l-142 -2 -5 538 c-3 296 -3 541 0
544 6 6 377 -6 400 -13z"/>
<path d="M2770 2869 c-45 -16 -68 -19 -127 -14 l-73 7 0 -506 0 -506 59 0 58
0 6 353 c3 225 10 366 17 391 36 120 169 187 224 113 20 -28 21 -40 25 -443
l3 -414 64 0 64 0 0 383 0 383 27 33 c43 52 107 91 147 91 83 0 95 -75 96
-561 l0 -316 31 -7 c17 -3 47 -6 65 -6 l34 0 0 333 c0 522 -19 619 -130 674
-70 34 -136 31 -228 -13 l-75 -36 -71 35 c-94 47 -145 53 -216 26z"/>
<path d="M3911 2870 c-81 -17 -158 -65 -195 -122 -16 -25 -16 -26 24 -62 22
-20 43 -36 46 -36 10 0 47 22 66 40 54 50 249 65 352 27 83 -31 116 -74 123
-161 7 -79 22 -73 -202 -80 -232 -8 -323 -38 -398 -129 -56 -68 -69 -102 -69
-178 0 -85 21 -150 70 -213 67 -89 168 -121 353 -114 92 4 114 8 171 35 l67
31 30 -29 c31 -29 48 -34 89 -23 l22 6 0 317 c0 351 -9 463 -43 531 -31 61
-127 134 -199 150 -69 16 -251 22 -307 10z m422 -557 c11 -7 8 -111 -5 -157
-16 -55 -110 -150 -164 -165 -73 -22 -136 -24 -203 -6 -154 40 -217 135 -161
244 23 47 80 77 166 90 55 9 350 4 367 -6z"/>
<path d="M4916 2863 c-47 -13 -69 -26 -116 -72 -89 -87 -106 -168 -58 -278 40
-92 86 -121 299 -187 205 -63 251 -82 286 -116 43 -42 48 -73 23 -124 -26 -55
-74 -81 -173 -95 -131 -18 -277 -9 -277 18 0 4 -31 40 -68 80 -65 69 -70 72
-108 69 -38 -3 -39 -4 -36 -38 4 -46 42 -128 80 -171 39 -44 130 -93 200 -108
113 -23 273 -7 360 38 89 46 162 155 162 244 0 54 -28 142 -59 186 -29 40
-121 83 -296 137 -166 52 -255 92 -279 126 -41 59 0 124 96 152 105 30 217 14
338 -50 35 -19 74 -34 86 -34 21 0 64 45 64 68 0 15 -94 99 -137 120 -99 51
-267 66 -387 35z"/>
<path d="M1742 2793 l3 -68 95 -5 95 -5 0 -360 0 -360 -140 -5 -140 -5 0 -65
0 -65 348 -3 347 -2 0 70 0 69 -142 3 -143 3 -3 433 -2 432 -161 0 -160 0 3
-67z"/>
</g>
</svg>
